<svg id="visual" viewBox="0 0 900 600" width="900" height="600" xmlns="http://www.w3.org/2000/svg" xmlns:xlink="http://www.w3.org/1999/xlink" version="1.1"><rect x="0" y="0" width="900" height="600" fill="#333333"></rect><defs><linearGradient id="grad1_0" x1="33.3%" y1="0%" x2="100%" y2="100%"><stop offset="20%" stop-color="#333333" stop-opacity="1"></stop><stop offset="80%" stop-color="#333333" stop-opacity="1"></stop></linearGradient></defs><defs><linearGradient id="grad2_0" x1="0%" y1="0%" x2="66.7%" y2="100%"><stop offset="20%" stop-color="#333333" stop-opacity="1"></stop><stop offset="80%" stop-color="#333333" stop-opacity="1"></stop></linearGradient></defs><g transform="translate(900, 0)"><path d="M0 486.7C-62.6 479.4 -125.1 472.1 -186.3 449.7C-247.4 427.3 -307.1 389.7 -338 338C-368.8 286.3 -370.8 220.6 -390.8 161.9C-410.8 103.2 -448.8 51.6 -486.7 0L0 0Z" fill="#9b51e0"></path></g><g transform="translate(0, 600)"><path d="M0 -486.7C48.2 -442.3 96.4 -397.9 157.7 -380.6C218.9 -363.4 293.2 -373.2 344.2 -344.2C395.1 -315.1 422.7 -247.2 442.5 -183.3C462.4 -119.5 474.6 -59.7 486.7 0L0 0Z" fill="#9b51e0"></path></g></svg>