<svg xmlns="http://www.w3.org/2000/svg" version="1.1" xmlns:xlink="http://www.w3.org/1999/xlink" xmlns:svgjs="http://svgjs.com/svgjs" width="1440" height="560" preserveAspectRatio="none" viewBox="0 0 1440 560"><g mask="url(&quot;#SvgjsMask1268&quot;)" fill="none"><rect width="1440" height="560" x="0" y="0" fill="url(#SvgjsLinearGradient1269)"></rect><path d="M446.01 80.76L481.26 80.76L481.26 116.01L446.01 116.01z" fill="rgba(168, 214, 242, 1)"></path><path d="M542.65 528.25L590.27 528.25L590.27 574.48L542.65 574.48z" stroke="rgba(168, 214, 242, 1)"></path><path d="M1354.84 535.22 a18.22 18.22 0 1 0 36.44 0 a18.22 18.22 0 1 0 -36.44 0z" fill="rgba(168, 214, 242, 1)"></path><path d="M921.37 350.63a20.26 20.26 0 1 0 7.79 39.76z" fill="rgba(155, 81, 224, 1)"></path><path d="M228.58 419.09a7.53 7.53 0 1 0 0.21-15.06z" stroke="rgba(168, 214, 242, 1)"></path><path d="M1121.68 102.52L1154.16 102.52L1154.16 135L1121.68 135z" stroke="rgba(155, 81, 224, 1)"></path><path d="M417.18 244.59L420.43 244.59L420.43 247.84L417.18 247.84z" stroke="rgba(168, 214, 242, 1)"></path><path d="M147.42 458.79a7.1 7.1 0 1 0 5.95 12.9z" stroke="rgba(155, 81, 224, 1)"></path><path d="M984.4 363.41L1024.46 363.41L1024.46 403.47L984.4 403.47z" fill="rgba(168, 214, 242, 1)"></path><path d="M1317.27 81.24L1366.52 81.24L1366.52 121.28L1317.27 121.28z" fill="rgba(168, 214, 242, 1)"></path><path d="M1145.35 362.51a29.16 29.16 0 1 0 57.54 9.54z" stroke="rgba(155, 81, 224, 1)"></path><path d="M360.97 140.09L411.71 140.09L411.71 194.18L360.97 194.18z" stroke="rgba(168, 214, 242, 1)"></path><path d="M605.77 363.39 a35.13 35.13 0 1 0 70.26 0 a35.13 35.13 0 1 0 -70.26 0z" fill="rgba(155, 81, 224, 1)"></path><path d="M144.18 483.91L152.25 483.91L152.25 508.05L144.18 508.05z" stroke="rgba(168, 214, 242, 1)"></path><path d="M572.88 274.89L620.21 274.89L620.21 322.22L572.88 322.22z" stroke="rgba(155, 81, 224, 1)"></path><path d="M777.18 64.45a48.79 48.79 0 1 0-77.1 59.83z" stroke="rgba(155, 81, 224, 1)"></path><path d="M581.31 482.69 a8.87 8.87 0 1 0 17.74 0 a8.87 8.87 0 1 0 -17.74 0z" fill="rgba(155, 81, 224, 1)"></path><path d="M187.94 515.61L192.21 515.61L192.21 559.36L187.94 559.36z" stroke="rgba(155, 81, 224, 1)"></path><path d="M1121.63 190.94L1136.99 190.94L1136.99 206.3L1121.63 206.3z" fill="rgba(155, 81, 224, 1)"></path><path d="M1115.9 91.08L1135.37 91.08L1135.37 138.42L1115.9 138.42z" stroke="rgba(168, 214, 242, 1)"></path><path d="M390.15 126.43L416.78 126.43L416.78 153.06L390.15 153.06z" stroke="rgba(168, 214, 242, 1)"></path><path d="M629.66 189.01 a2.28 2.28 0 1 0 4.56 0 a2.28 2.28 0 1 0 -4.56 0z" stroke="rgba(155, 81, 224, 1)"></path><path d="M252.53 370.41L278.6 370.41L278.6 418.13L252.53 418.13z" fill="rgba(155, 81, 224, 1)"></path><path d="M725.22 553.22 a14.9 14.9 0 1 0 29.8 0 a14.9 14.9 0 1 0 -29.8 0z" fill="rgba(168, 214, 242, 1)"></path><path d="M1400.35 43.01L1451.6 43.01L1451.6 55.87L1400.35 55.87z" stroke="rgba(168, 214, 242, 1)"></path><path d="M230.83 372.86 a4.43 4.43 0 1 0 8.86 0 a4.43 4.43 0 1 0 -8.86 0z" fill="rgba(155, 81, 224, 1)"></path><path d="M373.01 315.1 a39.19 39.19 0 1 0 78.38 0 a39.19 39.19 0 1 0 -78.38 0z" fill="rgba(168, 214, 242, 1)"></path><path d="M409.12 221.16L435.06 221.16L435.06 223.01L409.12 223.01z" fill="rgba(168, 214, 242, 1)"></path><path d="M917.07 522.26 a3.01 3.01 0 1 0 6.02 0 a3.01 3.01 0 1 0 -6.02 0z" stroke="rgba(168, 214, 242, 1)"></path><path d="M1221.43 426.32L1229.49 426.32L1229.49 434.38L1221.43 434.38z" fill="rgba(155, 81, 224, 1)"></path><path d="M249.6 217.89 a9.28 9.28 0 1 0 18.56 0 a9.28 9.28 0 1 0 -18.56 0z" stroke="rgba(168, 214, 242, 1)"></path><path d="M151.65 124.76L174.04 124.76L174.04 147.15L151.65 147.15z" fill="rgba(168, 214, 242, 1)"></path><path d="M830.15 247.14L830.72 247.14L830.72 247.71L830.15 247.71z" stroke="rgba(155, 81, 224, 1)"></path></g><defs><mask id="SvgjsMask1268"><rect width="1440" height="560" fill="#ffffff"></rect></mask><linearGradient x1="15.28%" y1="-39.29%" x2="84.72%" y2="139.29%" gradientUnits="userSpaceOnUse" id="SvgjsLinearGradient1269"><stop stop-color="#0e2a47" offset="0"></stop><stop stop-color="rgba(0, 61, 141, 1)" offset="1"></stop></linearGradient></defs></svg>